<?xml version="1.0" encoding="utf-8"?>
<!-- Generator: Adobe Illustrator 21.1.0, SVG Export Plug-In . SVG Version: 6.00 Build 0)  -->
<svg version="1.1" id="Слой_1" xmlns="http://www.w3.org/2000/svg" xmlns:xlink="http://www.w3.org/1999/xlink" x="0px" y="0px"
	 viewBox="0 0 103.3 66.6" style="enable-background:new 0 0 103.3 66.6;" xml:space="preserve">
<style type="text/css">
	.st0{fill:#D09999;stroke:#2C5360;stroke-linecap:round;stroke-linejoin:round;stroke-miterlimit:10;}
	.st1{fill:#EFF3F4;stroke:#2C5360;stroke-linecap:round;stroke-linejoin:round;stroke-miterlimit:10;}
	.st2{opacity:0.15;}
	.st3{fill:#EFF3F4;stroke:#2C5360;stroke-width:0.5;stroke-linecap:round;stroke-linejoin:round;stroke-miterlimit:10;}
	.st4{fill:none;stroke:#2C5360;stroke-linecap:round;stroke-linejoin:round;stroke-miterlimit:10;}
	.st5{fill:#EFF3F4;stroke:#2C5360;stroke-miterlimit:10;}
	.st6{fill:none;stroke:#2C5360;stroke-width:0.5;stroke-linecap:round;stroke-linejoin:round;stroke-miterlimit:10;}
	.st7{fill:#DDDCB8;stroke:#2C5360;stroke-width:0.5;stroke-linecap:round;stroke-linejoin:round;stroke-miterlimit:10;}
	.st8{fill:#DDDCB8;stroke:#2C5360;stroke-width:0.5;stroke-miterlimit:10;}
	.st9{fill:#D4DEE0;stroke:#2C5360;stroke-linecap:round;stroke-linejoin:round;stroke-miterlimit:10;}
	.st10{fill:#9BBFB1;stroke:#2C545E;stroke-miterlimit:10;}
	.st11{fill:#D4DEE0;}
	.st12{fill:#D4DEE0;stroke:#2C5360;stroke-width:0.5;stroke-linecap:round;stroke-linejoin:round;stroke-miterlimit:10;}
	.st13{fill:#D4DEE0;stroke:#2C5360;stroke-width:0.5;stroke-miterlimit:10;}
	.st14{fill:none;stroke:#2C5360;stroke-width:0.5;stroke-miterlimit:1;}
	.st15{fill:#D4DEE0;stroke:#2C5360;stroke-width:0.25;stroke-miterlimit:10;}
	.st16{fill:none;stroke:#2C5360;stroke-width:0.5;stroke-miterlimit:10;}
	.st17{fill:#EFF3F4;stroke:#2C5360;stroke-width:0.5;stroke-miterlimit:10;}
	.st18{fill:#9BBFB1;stroke:#2C5360;stroke-miterlimit:10;}
	.st19{fill:none;stroke:#2C5360;stroke-miterlimit:10;}
	.st20{fill:#223B50;}
</style>
<polygon class="st0" points="91.1,13.9 13.3,13.9 7.8,24.3 96.6,24.3 "/>
<rect x="6" y="24.3" class="st1" width="92.1" height="1.7"/>
<rect x="5.2" y="26.2" class="st1" width="93.7" height="2.7"/>
<rect x="5.7" y="26.2" class="st2" width="93.2" height="0.9"/>
<rect x="81.6" y="26.2" class="st3" width="2.6" height="1.1"/>
<rect x="87.4" y="26.2" class="st3" width="2.6" height="1.1"/>
<rect x="92.9" y="26.2" class="st3" width="2.6" height="1.1"/>
<rect x="8.2" y="26.2" class="st3" width="2.6" height="1.1"/>
<rect x="14" y="26.2" class="st3" width="2.6" height="1.1"/>
<rect x="19.6" y="26.2" class="st3" width="2.6" height="1.1"/>
<rect x="5.2" y="26.2" class="st4" width="93.7" height="2.7"/>
<rect x="7.2" y="28.9" class="st1" width="88.5" height="36.8"/>
<g>
	<path class="st1" d="M18.9,43.5H15h-3.8v-7.2c0,0-0.2-5.4,4-5.4c4,0,3.7,5.4,3.7,5.4V43.5z"/>
	<line class="st5" x1="11" y1="35.4" x2="19" y2="35.4"/>
	<line class="st5" x1="13.5" y1="31.2" x2="13.5" y2="43.2"/>
	<line class="st5" x1="16.5" y1="31.2" x2="16.5" y2="43.2"/>
	<rect x="12.2" y="47.4" class="st1" width="5.6" height="7.6"/>
	<line class="st4" x1="15.1" y1="50.1" x2="15.1" y2="54.5"/>
	<line class="st4" x1="12.2" y1="49.6" x2="17.4" y2="49.6"/>
	<rect x="10.1" y="45.3" class="st6" width="0.9" height="11.8"/>
	<rect x="19.1" y="45.3" class="st6" width="0.9" height="11.8"/>
	
		<rect x="14.6" y="40.8" transform="matrix(3.742854e-11 1 -1 3.742854e-11 60.7209 30.7359)" class="st6" width="0.9" height="9.8"/>
</g>
<polygon class="st2" points="23.7,14.8 7,58.4 7,64.9 23.3,65 "/>
<rect x="23.8" y="22.9" class="st1" width="55.3" height="41.6"/>
<g>
	<path class="st7" d="M35,49.5h-2.6h-2.6V33.9c0,0-0.2-4.6,2.7-4.6c2.7,0,2.5,4.6,2.5,4.6V49.5z"/>
	<line class="st8" x1="29.8" y1="33.4" x2="35" y2="33.4"/>
	<line class="st8" x1="30.1" y1="31.4" x2="34.7" y2="31.4"/>
	<line class="st8" x1="29.8" y1="36.4" x2="35" y2="36.4"/>
	<line class="st8" x1="29.8" y1="38.9" x2="35" y2="38.9"/>
	<line class="st8" x1="29.8" y1="41.4" x2="35" y2="41.4"/>
	<line class="st8" x1="29.8" y1="43.9" x2="34.9" y2="43.9"/>
	<line class="st8" x1="29.8" y1="46.4" x2="34.9" y2="46.4"/>
	<line class="st8" x1="31.2" y1="29.6" x2="31.2" y2="49.4"/>
	<line class="st8" x1="33.6" y1="29.6" x2="33.6" y2="49.4"/>
</g>
<g>
	<path class="st7" d="M72.7,49.5h-2.6h-2.6V33.9c0,0-0.2-4.6,2.7-4.6c2.7,0,2.5,4.6,2.5,4.6V49.5z"/>
	<line class="st8" x1="67.6" y1="33.4" x2="72.8" y2="33.4"/>
	<line class="st8" x1="67.9" y1="31.4" x2="72.5" y2="31.4"/>
	<line class="st8" x1="67.6" y1="36.4" x2="72.8" y2="36.4"/>
	<line class="st8" x1="67.6" y1="38.9" x2="72.7" y2="38.9"/>
	<line class="st8" x1="67.6" y1="41.4" x2="72.7" y2="41.4"/>
	<line class="st8" x1="67.6" y1="43.9" x2="72.7" y2="43.9"/>
	<line class="st8" x1="67.6" y1="46.4" x2="72.7" y2="46.4"/>
	<line class="st8" x1="69" y1="29.6" x2="69" y2="49.4"/>
	<line class="st8" x1="71.4" y1="29.6" x2="71.4" y2="49.4"/>
</g>
<rect x="35.4" y="25.6" class="st2" width="3.1" height="28.4"/>
<rect x="24" y="25.6" class="st2" width="2.6" height="28.4"/>
<rect x="49.4" y="25.6" class="st2" width="3.1" height="28.4"/>
<rect x="63" y="25.6" class="st2" width="3.1" height="28.4"/>
<rect x="74" y="25.6" class="st2" width="3.1" height="28.4"/>
<rect x="42.1" y="43.7" class="st3" width="5.7" height="11.3"/>
<rect x="42.1" y="43.7" class="st6" width="1" height="10.9"/>
<rect x="46.8" y="43.7" class="st6" width="1.2" height="10.9"/>
<rect x="42.1" y="43.7" class="st3" width="5.7" height="1.3"/>
<rect x="7.2" y="57.3" class="st9" width="16.6" height="7.7"/>
<rect x="79.1" y="57.3" class="st9" width="16.6" height="7.7"/>
<path class="st9" d="M28.9,25.2h-3.7c-0.5,0-0.9-0.4-0.9-0.9v0c0-0.5,0.4-0.9,0.9-0.9h3.7c0.5,0,0.9,0.4,0.9,0.9v0
	C29.8,24.8,29.4,25.2,28.9,25.2z"/>
<path class="st9" d="M28.9,55.1h-3.7c-0.5,0-0.9-0.4-0.9-0.9v0c0-0.5,0.4-0.9,0.9-0.9h3.7c0.5,0,0.9,0.4,0.9,0.9v0
	C29.8,54.7,29.4,55.1,28.9,55.1z"/>
<path class="st9" d="M40,25.2h-3.7c-0.5,0-0.9-0.4-0.9-0.9v0c0-0.5,0.4-0.9,0.9-0.9H40c0.5,0,0.9,0.4,0.9,0.9v0
	C40.9,24.8,40.5,25.2,40,25.2z"/>
<path class="st9" d="M40,55.1h-3.7c-0.5,0-0.9-0.4-0.9-0.9v0c0-0.5,0.4-0.9,0.9-0.9H40c0.5,0,0.9,0.4,0.9,0.9v0
	C40.9,54.7,40.5,55.1,40,55.1z"/>
<path class="st9" d="M53.6,25.2H50c-0.5,0-0.9-0.4-0.9-0.9v0c0-0.5,0.4-0.9,0.9-0.9h3.7c0.5,0,0.9,0.4,0.9,0.9v0
	C54.5,24.8,54.1,25.2,53.6,25.2z"/>
<path class="st9" d="M53.6,55.1H50c-0.5,0-0.9-0.4-0.9-0.9v0c0-0.5,0.4-0.9,0.9-0.9h3.7c0.5,0,0.9,0.4,0.9,0.9v0
	C54.5,54.7,54.1,55.1,53.6,55.1z"/>
<path class="st9" d="M66.3,25.2h-3.7c-0.5,0-0.9-0.4-0.9-0.9v0c0-0.5,0.4-0.9,0.9-0.9h3.7c0.5,0,0.9,0.4,0.9,0.9v0
	C67.2,24.8,66.8,25.2,66.3,25.2z"/>
<path class="st9" d="M77.3,25.2h-3.7c-0.5,0-0.9-0.4-0.9-0.9v0c0-0.5,0.4-0.9,0.9-0.9h3.7c0.5,0,0.9,0.4,0.9,0.9v0
	C78.2,24.8,77.8,25.2,77.3,25.2z"/>
<path class="st9" d="M77.3,55.1h-3.7c-0.5,0-0.9-0.4-0.9-0.9v0c0-0.5,0.4-0.9,0.9-0.9h3.7c0.5,0,0.9,0.4,0.9,0.9v0
	C78.2,54.7,77.8,55.1,77.3,55.1z"/>
<rect x="25.4" y="25.2" class="st9" width="3.1" height="28.1"/>
<rect x="36.6" y="25.2" class="st9" width="3.1" height="28.1"/>
<rect x="36.6" y="25.2" class="st9" width="3.1" height="28.1"/>
<rect x="50.2" y="25.2" class="st9" width="3.1" height="28.1"/>
<rect x="62.9" y="25.2" class="st9" width="3.1" height="28.1"/>
<rect x="73.9" y="25.2" class="st9" width="3.1" height="28.1"/>
<rect x="24.1" y="23.4" class="st2" width="54.3" height="2.2"/>
<rect x="23.6" y="20.9" class="st5" width="55.3" height="2.6"/>
<rect x="24.1" y="20.9" class="st2" width="54.3" height="0.9"/>
<rect x="25.3" y="20.9" class="st3" width="2.6" height="1.1"/>
<rect x="31" y="20.9" class="st3" width="2.6" height="1.1"/>
<rect x="36.6" y="20.9" class="st3" width="2.6" height="1.1"/>
<rect x="41.7" y="20.9" class="st3" width="2.6" height="1.1"/>
<rect x="47.4" y="20.9" class="st3" width="2.6" height="1.1"/>
<rect x="53" y="20.9" class="st3" width="2.6" height="1.1"/>
<rect x="58.1" y="20.9" class="st3" width="2.6" height="1.1"/>
<rect x="63.9" y="20.9" class="st3" width="2.6" height="1.1"/>
<rect x="69.4" y="20.9" class="st3" width="2.6" height="1.1"/>
<rect x="74.3" y="20.9" class="st3" width="2.6" height="1.1"/>
<polygon class="st1" points="24.5,15.8 51.1,3.4 77.5,15.7 77.5,19.9 24.5,19.6 "/>
<rect x="23.6" y="17.9" class="st9" width="55.2" height="3"/>
<polygon class="st2" points="78.1,17.3 50.6,3.4 24.7,17.3 27.2,17.4 50.6,6.4 74.1,17.4 "/>
<polygon class="st9" points="78.8,14.8 51.1,1.8 23.6,14.8 23.6,17.9 51.1,4.9 78.8,17.9 "/>
<rect x="30.3" y="55.1" class="st1" width="41.7" height="9.4"/>
<rect x="30.3" y="56.6" class="st1" width="41.7" height="6.4"/>
<rect x="30.3" y="58.1" class="st1" width="41.7" height="3.4"/>
<line class="st4" x1="30.6" y1="59.8" x2="71.8" y2="59.8"/>
<rect x="23.6" y="54.9" class="st9" width="6.7" height="9.6"/>
<polygon class="st2" points="26.8,56.1 23.1,64.5 26.6,64.5 "/>
<rect x="25.5" y="61.1" class="st9" width="2.4" height="3.4"/>
<circle class="st2" cx="50.7" cy="12" r="3.4"/>
<rect x="72.1" y="54.9" class="st9" width="6.7" height="9.6"/>
<circle class="st1" cx="51.1" cy="11.7" r="2.4"/>
<g>
	<path class="st1" d="M91.2,43.5h-3.8h-3.8v-7.2c0,0-0.2-5.4,4-5.4c4,0,3.7,5.4,3.7,5.4V43.5z"/>
	<line class="st5" x1="83.3" y1="35.4" x2="91.3" y2="35.4"/>
	<line class="st5" x1="85.8" y1="31.2" x2="85.8" y2="43.2"/>
	<line class="st5" x1="88.9" y1="31.2" x2="88.9" y2="43.2"/>
	<rect x="84.6" y="47.4" class="st1" width="5.6" height="7.6"/>
	<line class="st4" x1="87.4" y1="50.1" x2="87.4" y2="54.5"/>
	<line class="st4" x1="84.6" y1="49.6" x2="89.7" y2="49.6"/>
	<rect x="82.4" y="45.3" class="st6" width="0.9" height="11.8"/>
	<rect x="91.5" y="45.3" class="st6" width="0.9" height="11.8"/>
	
		<rect x="86.9" y="40.8" transform="matrix(3.742854e-11 1 -1 3.742854e-11 133.0572 -41.6004)" class="st6" width="0.9" height="9.8"/>
</g>
<circle class="st10" cx="26.8" cy="59.8" r="1.6"/>
<circle class="st10" cx="26.8" cy="57.3" r="1"/>
<polygon class="st2" points="75.8,56.1 72.1,64.5 75.6,64.5 "/>
<rect x="74.5" y="61.1" class="st9" width="2.4" height="3.4"/>
<circle class="st10" cx="75.8" cy="59.8" r="1.6"/>
<circle class="st10" cx="75.8" cy="57.3" r="1"/>
<rect x="43.2" y="52.3" class="st6" width="3.5" height="2.3"/>
<rect x="43.2" y="45" class="st3" width="1.8" height="7.2"/>
<rect x="43.2" y="45" class="st6" width="3.5" height="3.5"/>
<rect x="55.3" y="43.7" class="st3" width="5.7" height="11.3"/>
<rect x="55.3" y="43.7" class="st6" width="1" height="10.9"/>
<rect x="59.9" y="43.7" class="st6" width="1.2" height="10.9"/>
<rect x="55.3" y="43.7" class="st3" width="5.7" height="1.3"/>
<rect x="56.3" y="52.3" class="st6" width="3.5" height="2.3"/>
<rect x="56.3" y="45" class="st3" width="1.8" height="7.2"/>
<rect x="56.3" y="45" class="st6" width="3.5" height="3.5"/>
<path class="st9" d="M66.3,55.1h-3.7c-0.5,0-0.9-0.4-0.9-0.9v0c0-0.5,0.4-0.9,0.9-0.9h3.7c0.5,0,0.9,0.4,0.9,0.9v0
	C67.2,54.7,66.8,55.1,66.3,55.1z"/>
<g>
	<polygon class="st11" points="41.7,34.5 41.7,32.7 42.1,31.2 42.8,30 43.9,29.5 45,29.3 46.1,29.4 47.1,29.9 47.7,30.5 48.1,31.4 
		48.3,32.5 48.3,33.1 48.3,37.7 41.7,37.7 	"/>
	<g>
		<path class="st7" d="M47.3,37.7H45h-2.3v-4.2c0,0-0.1-3.1,2.3-3.1c2.4,0,2.2,3.1,2.2,3.1V37.7z"/>
		<line class="st8" x1="42.7" y1="33" x2="47.4" y2="33"/>
		<line class="st8" x1="44.1" y1="30.5" x2="44.1" y2="37.5"/>
		<line class="st8" x1="45.9" y1="30.5" x2="45.9" y2="37.5"/>
	</g>
	<g>
		<path class="st6" d="M48.3,33c0,0,0.2-3.7-3.2-3.7c-3.6,0-3.4,3.7-3.4,3.7"/>
	</g>
	<rect x="42.3" y="37.7" class="st12" width="1" height="1.2"/>
	<rect x="46.9" y="37.7" class="st12" width="0.9" height="1.2"/>
	<rect x="41.5" y="38.9" class="st13" width="7.1" height="0.8"/>
	<path class="st1" d="M41,37.4"/>
	<line class="st14" x1="48.7" y1="37.7" x2="41.3" y2="37.7"/>
	<rect x="41.4" y="33" class="st15" width="0.7" height="1.5"/>
	<rect x="48" y="33" class="st15" width="0.7" height="1.5"/>
	<line class="st16" x1="42.3" y1="33" x2="41.1" y2="33"/>
	<line class="st16" x1="49" y1="33" x2="47.7" y2="33"/>
	<line class="st16" x1="48.3" y1="34.5" x2="48.3" y2="37.6"/>
	<line class="st17" x1="41.7" y1="34.6" x2="41.7" y2="37.6"/>
</g>
<g>
	<polygon class="st11" points="54.7,34.5 54.7,32.7 55.1,31.2 55.8,30 56.9,29.5 58,29.3 59.1,29.4 60.1,29.9 60.7,30.5 61.1,31.4 
		61.3,32.5 61.3,33.1 61.3,37.7 54.7,37.7 	"/>
	<g>
		<path class="st7" d="M60.3,37.7H58h-2.3v-4.2c0,0-0.1-3.1,2.3-3.1c2.4,0,2.2,3.1,2.2,3.1V37.7z"/>
		<line class="st8" x1="55.7" y1="33" x2="60.4" y2="33"/>
		<line class="st8" x1="57.1" y1="30.5" x2="57.1" y2="37.5"/>
		<line class="st8" x1="58.9" y1="30.5" x2="58.9" y2="37.5"/>
	</g>
	<g>
		<path class="st6" d="M61.3,33c0,0,0.2-3.7-3.2-3.7c-3.6,0-3.4,3.7-3.4,3.7"/>
	</g>
	<rect x="55.3" y="37.7" class="st12" width="1" height="1.2"/>
	<rect x="59.9" y="37.7" class="st12" width="0.9" height="1.2"/>
	<rect x="54.5" y="38.9" class="st13" width="7.1" height="0.8"/>
	<path class="st1" d="M54,37.4"/>
	<line class="st14" x1="61.7" y1="37.7" x2="54.3" y2="37.7"/>
	<rect x="54.4" y="33" class="st15" width="0.7" height="1.5"/>
	<rect x="61" y="33" class="st15" width="0.7" height="1.5"/>
	<line class="st16" x1="55.3" y1="33" x2="54.1" y2="33"/>
	<line class="st16" x1="62" y1="33" x2="60.7" y2="33"/>
	<line class="st16" x1="61.3" y1="34.5" x2="61.3" y2="37.6"/>
	<line class="st17" x1="54.7" y1="34.6" x2="54.7" y2="37.6"/>
</g>
<g>
	<path class="st18" d="M17.7,59.7c0-1.8-1.5-7.4-3.3-7.4s-3.3,5.5-3.3,7.4c0,1.8,1.5,3.3,3.3,3.3S17.7,61.5,17.7,59.7z"/>
	<line class="st19" x1="14.5" y1="58.9" x2="14.5" y2="64.9"/>
</g>
<path class="st18" d="M20.5,64.4c0.1-0.3,0.1-0.5,0.1-0.7c0-1.3-1.1-2.4-2.4-2.4c-1,0-1.9,0.6-2.2,1.5c-0.2-0.1-0.4,0-0.5,0
	c-0.9,0-1.7,0.7-1.8,1.7H20.5z"/>
<path class="st20" d="M101.1,66.3H1.7c-0.4,0-0.8-0.4-0.8-0.8v0c0-0.4,0.4-0.8,0.8-0.8h99.4c0.4,0,0.8,0.4,0.8,0.8v0
	C101.9,66,101.5,66.3,101.1,66.3z"/>
<g>
	<path class="st18" d="M91.7,59.7c0-1.8-1.5-7.4-3.3-7.4s-3.3,5.5-3.3,7.4c0,1.8,1.5,3.3,3.3,3.3S91.7,61.5,91.7,59.7z"/>
	<line class="st19" x1="88.5" y1="58.9" x2="88.5" y2="64.9"/>
</g>
</svg>
