<?xml version="1.0" encoding="utf-8"?>
<!-- Generator: Adobe Illustrator 21.1.0, SVG Export Plug-In . SVG Version: 6.00 Build 0)  -->
<svg version="1.1" id="Слой_1" xmlns="http://www.w3.org/2000/svg" xmlns:xlink="http://www.w3.org/1999/xlink" x="0px" y="0px"
	 viewBox="0 0 93 68" style="enable-background:new 0 0 93 68;" xml:space="preserve">
<style type="text/css">
	.st0{fill:#EFF3F4;stroke:#96A9AF;stroke-miterlimit:10;}
	.st1{fill:#EFF3F4;stroke:#2C5360;stroke-miterlimit:10;}
	.st2{fill:#B6C6C7;stroke:#2C5360;stroke-miterlimit:10;}
	.st3{opacity:0.1;}
	.st4{fill:#D5DDDF;stroke:#2C5360;stroke-miterlimit:10;}
	.st5{fill:#2C5360;stroke:#2C5360;stroke-miterlimit:10;}
	.st6{fill:#EFF3F4;stroke:#2C5360;stroke-width:0.75;stroke-miterlimit:10;}
	.st7{fill:#E9EDF0;stroke:#2C5360;stroke-miterlimit:10;}
	.st8{fill:#E9EDF0;stroke:#2C5360;stroke-width:0.5;stroke-miterlimit:10;}
	.st9{fill:#2C5360;}
	.st10{fill:#D09999;stroke:#2C5360;stroke-miterlimit:10;}
	.st11{fill:#9BBFB1;stroke:#2C5360;stroke-miterlimit:10;}
	.st12{fill:none;stroke:#2C5360;stroke-miterlimit:10;}
	.st13{fill:#223B50;}
	.st14{fill:none;stroke:#96A9AF;stroke-miterlimit:10;}
</style>
<polygon class="st0" points="56.5,15 83.2,15 84.3,12.2 55.4,12.2 "/>
<rect x="62" y="15" class="st0" width="20.7" height="49.8"/>
<path class="st0" d="M78.1,31.7h-6.7V24c0,0-0.2-4.6,3.4-4.6c3.5,0,3.3,4.6,3.3,4.6V31.7z"/>
<path class="st0" d="M78.1,47.5h-6.7v-7.7c0,0-0.2-4.6,3.4-4.6c3.5,0,3.3,4.6,3.3,4.6V47.5z"/>
<rect x="12" y="22.3" class="st0" width="27.8" height="42.8"/>
<rect x="23.7" y="37.8" class="st0" width="4.5" height="5.8"/>
<rect x="15.6" y="37.8" class="st0" width="4.5" height="5.8"/>
<rect x="23.7" y="46.8" class="st0" width="4.5" height="5.8"/>
<rect x="15.6" y="46.8" class="st0" width="4.5" height="5.8"/>
<rect x="23.7" y="28.1" class="st0" width="4.5" height="5.8"/>
<rect x="26" y="6" class="st1" width="41.7" height="59.5"/>
<polygon class="st2" points="69.3,60.5 24.8,60.5 24.1,65.5 70,65.5 "/>
<g>
	<path class="st3" d="M37.2,58.3h-7.6c0,0,0,0,0,0v-1.2c0,0,0,0,0,0h7.6c0,0,0,0,0,0L37.2,58.3C37.3,58.3,37.3,58.3,37.2,58.3z"/>
	<g>
		<path class="st4" d="M36.6,55.2h-6.3V42c0-0.1,0.1-0.2,0.2-0.2h6c0.1,0,0.2,0.1,0.2,0.2V55.2z"/>
		<rect x="30.6" y="51" class="st5" width="5.5" height="3.9"/>
		<path class="st6" d="M37.2,57.2h-7.6c0,0,0,0,0,0v-1.6c0,0,0,0,0,0h7.6c0,0,0,0,0,0L37.2,57.2C37.3,57.2,37.2,57.2,37.2,57.2z"/>
	</g>
</g>
<g>
	<path class="st3" d="M37.2,21.9h-7.6c0,0,0,0,0,0v-1.2c0,0,0,0,0,0h7.6c0,0,0,0,0,0L37.2,21.9C37.3,21.9,37.3,21.9,37.2,21.9z"/>
	<path class="st4" d="M36.5,18.8h-6.3v-8.3c0-0.1,0.1-0.2,0.2-0.2h6c0.1,0,0.2,0.1,0.2,0.2V18.8z"/>
	<rect x="30.5" y="16.2" class="st5" width="5.5" height="2.3"/>
	<path class="st6" d="M37.2,20.8h-7.6c0,0,0,0,0,0v-1.6c0,0,0,0,0,0h7.6c0,0,0,0,0,0L37.2,20.8C37.2,20.8,37.2,20.8,37.2,20.8z"/>
</g>
<g>
	<rect x="55" y="42.6" class="st7" width="8.9" height="16.1"/>
	<rect x="57.1" y="45" class="st8" width="4.8" height="5.4"/>
	<rect x="57.1" y="52.1" class="st8" width="4.8" height="4"/>
	<ellipse class="st9" cx="56.5" cy="51.4" rx="0.4" ry="0.4"/>
</g>
<g>
	<path class="st3" d="M50.4,21.9h-7.6c0,0,0,0,0,0v-1.2c0,0,0,0,0,0h7.6c0,0,0,0,0,0L50.4,21.9C50.4,21.9,50.4,21.9,50.4,21.9z"/>
	<path class="st4" d="M49.7,18.8h-6.3v-8.3c0-0.1,0.1-0.2,0.2-0.2h6c0.1,0,0.2,0.1,0.2,0.2V18.8z"/>
	<rect x="43.7" y="13.7" class="st5" width="5.5" height="4.8"/>
	<path class="st6" d="M50.3,20.8h-7.6c0,0,0,0,0,0v-1.6c0,0,0,0,0,0h7.6c0,0,0,0,0,0L50.3,20.8C50.3,20.8,50.3,20.8,50.3,20.8z"/>
</g>
<g>
	<path class="st3" d="M63.1,21.9h-7.6c0,0,0,0,0,0v-1.2c0,0,0,0,0,0h7.6c0,0,0,0,0,0L63.1,21.9C63.1,21.9,63.1,21.9,63.1,21.9z"/>
	<path class="st4" d="M62.4,18.8H56v-8.3c0-0.1,0.1-0.2,0.2-0.2h6c0.1,0,0.2,0.1,0.2,0.2V18.8z"/>
	<rect x="56.4" y="17.2" class="st5" width="5.5" height="1.3"/>
	<path class="st6" d="M63,20.8h-7.6c0,0,0,0,0,0v-1.6c0,0,0,0,0,0H63c0,0,0,0,0,0L63,20.8C63,20.8,63,20.8,63,20.8z"/>
</g>
<g>
	<path class="st3" d="M37.2,37.2h-7.6c0,0,0,0,0,0V36c0,0,0,0,0,0h7.6c0,0,0,0,0,0L37.2,37.2C37.3,37.2,37.3,37.2,37.2,37.2z"/>
	<path class="st4" d="M36.5,34.1h-6.3v-8.3c0-0.1,0.1-0.2,0.2-0.2h6c0.1,0,0.2,0.1,0.2,0.2V34.1z"/>
	<rect x="30.5" y="27.8" class="st5" width="5.5" height="6"/>
	<path class="st6" d="M37.2,36.1h-7.6c0,0,0,0,0,0v-1.6c0,0,0,0,0,0h7.6c0,0,0,0,0,0L37.2,36.1C37.2,36.1,37.2,36.1,37.2,36.1z"/>
</g>
<g>
	<path class="st3" d="M50.4,37.2h-7.6c0,0,0,0,0,0V36c0,0,0,0,0,0h7.6c0,0,0,0,0,0L50.4,37.2C50.4,37.2,50.4,37.2,50.4,37.2z"/>
	<path class="st4" d="M49.7,34.1h-6.3v-8.3c0-0.1,0.1-0.2,0.2-0.2h6c0.1,0,0.2,0.1,0.2,0.2V34.1z"/>
	<rect x="43.7" y="32.4" class="st5" width="5.5" height="1.4"/>
	<path class="st6" d="M50.3,36.1h-7.6c0,0,0,0,0,0v-1.6c0,0,0,0,0,0h7.6c0,0,0,0,0,0L50.3,36.1C50.3,36.1,50.3,36.1,50.3,36.1z"/>
</g>
<path class="st3" d="M63.1,37.2h-7.6c0,0,0,0,0,0V36c0,0,0,0,0,0h7.6c0,0,0,0,0,0L63.1,37.2C63.1,37.2,63.1,37.2,63.1,37.2z"/>
<rect x="26.5" y="4.7" class="st3" width="40.8" height="3.8"/>
<g>
	<path class="st4" d="M62.4,34.1H56v-8.3c0-0.1,0.1-0.2,0.2-0.2h6c0.1,0,0.2,0.1,0.2,0.2V34.1z"/>
	<rect x="56.4" y="30.8" class="st5" width="5.5" height="3"/>
	<path class="st6" d="M63,36.1h-7.6c0,0,0,0,0,0v-1.6c0,0,0,0,0,0H63c0,0,0,0,0,0L63,36.1C63,36.1,63,36.1,63,36.1z"/>
</g>
<polygon class="st10" points="69.1,6.2 24.6,6.2 23.9,1.2 69.8,1.2 "/>
<rect x="53.2" y="58.2" class="st1" width="13" height="2.3"/>
<rect x="51.6" y="60.5" class="st1" width="16.1" height="2.3"/>
<rect x="50.1" y="62.7" class="st1" width="19.2" height="2.3"/>
<g>
	<path class="st11" d="M22.6,59.9c0-1.8-1.5-7.4-3.3-7.4S16,58.1,16,59.9c0,1.8,1.5,3.3,3.3,3.3S22.6,61.7,22.6,59.9z"/>
	<line class="st12" x1="19.5" y1="59.1" x2="19.5" y2="65.1"/>
</g>
<g>
	<path class="st11" d="M79.6,59.9c0-1.8-1.5-7.4-3.3-7.4S73,58.1,73,59.9c0,1.8,1.5,3.3,3.3,3.3S79.6,61.7,79.6,59.9z"/>
	<line class="st12" x1="76.5" y1="59.1" x2="76.5" y2="65.1"/>
</g>
<path class="st11" d="M40.4,65.6c0.2,0,0.4-0.8,0.4-1.3c0-1.4-1.1-2.6-2.5-2.6c-0.5,0-0.9,0.1-1.3,0.4c-0.8-1.8-2.6-3.1-4.8-3.1
	c-2.1,0-3.9,1.3-4.7,3.1c-0.4-0.2-0.8-0.3-1.2-0.3c-1.4,0-2.5,1.2-2.5,2.6c0,0.5,0.1,1.3,0.4,1.3H40.4z"/>
<path class="st11" d="M80.4,65.6c0.2,0,0.4-0.8,0.4-1.3c0-1.4-1.1-2.6-2.5-2.6c-0.5,0-0.9,0.1-1.3,0.4c-0.8-1.8-2.6-3.1-4.8-3.1
	c-2.1,0-3.9,1.3-4.7,3.1c-0.4-0.2-0.8-0.3-1.2-0.3c-1.4,0-2.5,1.2-2.5,2.6c0,0.5,0.1,1.3,0.4,1.3H80.4z"/>
<path class="st13" d="M91.7,66.8H1.3c-0.4,0-0.8-0.4-0.8-0.8v-0.3c0-0.4,0.4-0.8,0.8-0.8h90.4c0.4,0,0.8,0.4,0.8,0.8V66
	C92.5,66.4,92.2,66.8,91.7,66.8z"/>
<path class="st4" d="M55.5,45.5c0,0.8-0.6,1.4-1.3,1.4s-1.3-0.6-1.3-1.4"/>
<path class="st4" d="M58.8,45.5c0,0.8-0.6,1.4-1.3,1.4c-0.7,0-1.3-0.6-1.3-1.4"/>
<path class="st4" d="M62.2,45.5c0,0.8-0.6,1.4-1.3,1.4s-1.3-0.6-1.3-1.4"/>
<path class="st4" d="M65.5,45.5c0,0.8-0.6,1.4-1.3,1.4c-0.7,0-1.3-0.6-1.3-1.4"/>
<polygon class="st1" points="65.3,45.1 53.2,45.1 55.4,40.2 63.1,40.2 "/>
<g>
	<path class="st3" d="M50.8,58.3h-7.6c0,0,0,0,0,0v-1.2c0,0,0,0,0,0h7.6c0,0,0,0,0,0L50.8,58.3C50.8,58.3,50.8,58.3,50.8,58.3z"/>
	<path class="st4" d="M49.9,55.2h-6.3V42c0-0.1,0.1-0.2,0.2-0.2h6c0.1,0,0.2,0.1,0.2,0.2V55.2z"/>
	<rect x="43.9" y="53.5" class="st5" width="5.5" height="1.4"/>
	<path class="st6" d="M50.6,57.2h-7.6c0,0,0,0,0,0v-1.6c0,0,0,0,0,0h7.6c0,0,0,0,0,0L50.6,57.2C50.6,57.2,50.6,57.2,50.6,57.2z"/>
</g>
<rect x="15.6" y="28.1" class="st0" width="4.5" height="5.8"/>
<line class="st14" x1="71" y1="26.6" x2="78" y2="26.6"/>
<line class="st14" x1="71" y1="44.6" x2="78" y2="44.6"/>
</svg>
