<?xml version="1.0" encoding="utf-8"?>
<!-- Generator: Adobe Illustrator 21.1.0, SVG Export Plug-In . SVG Version: 6.00 Build 0)  -->
<svg version="1.1" id="Слой_1" xmlns="http://www.w3.org/2000/svg" xmlns:xlink="http://www.w3.org/1999/xlink" x="0px" y="0px"
	 viewBox="0 0 101.9 90.6" style="enable-background:new 0 0 101.9 90.6;" xml:space="preserve">
<style type="text/css">
	.st0{opacity:0.15;}
	.st1{fill:#96A9AF;stroke:#96A9AF;stroke-miterlimit:10;}
	.st2{fill:#EFF3F4;stroke:#2C5360;stroke-miterlimit:10;}
	.st3{fill:none;stroke:#2C5360;stroke-miterlimit:10;}
	.st4{opacity:0.15;fill:#96A9AF;stroke:#96A9AF;stroke-miterlimit:10;}
	.st5{opacity:0.15;fill:#96A9AF;}
	.st6{fill:#B6C6C7;stroke:#2C5360;stroke-miterlimit:10;}
	.st7{fill:#223B50;}
	.st8{fill:#D5DDDF;stroke:#2C5360;stroke-miterlimit:10;}
	.st9{fill:#E9EDF0;stroke:#2C5360;stroke-miterlimit:10;}
	.st10{fill:#998F7C;stroke:#5B554C;stroke-miterlimit:10;}
	.st11{fill:#998F7C;stroke:#827767;stroke-miterlimit:10;}
	.st12{fill:#2C5360;stroke:#2C5360;stroke-miterlimit:10;}
	.st13{fill:none;stroke:#2C5360;stroke-width:0.25;stroke-miterlimit:10;}
</style>
<g class="st0">
	<polygon class="st1" points="65.3,30.2 95.3,30.2 96.5,27.3 64.1,27.3 	"/>
	<rect x="65.6" y="30.2" class="st1" width="29.4" height="49.8"/>
</g>
<g>
	<rect x="24.6" y="70.4" class="st2" width="10" height="10"/>
	<line class="st3" x1="24.6" y1="70.4" x2="34.7" y2="80.5"/>
	<line class="st3" x1="24.6" y1="80.5" x2="34.7" y2="70.4"/>
</g>
<rect x="36.8" y="39" class="st4" width="27.8" height="42.8"/>
<rect x="8.2" y="29.8" class="st5" width="13.3" height="52"/>
<g>
	<rect x="24.6" y="60.4" class="st3" width="10" height="10"/>
	<line class="st3" x1="24.6" y1="60.4" x2="34.7" y2="70.5"/>
	<line class="st3" x1="24.6" y1="70.5" x2="34.7" y2="60.4"/>
</g>
<polygon class="st6" points="89.5,76.1 45.1,76.1 44.4,81.1 90.2,81.1 "/>
<g>
	<rect x="24.6" y="50.4" class="st3" width="10" height="10"/>
	<line class="st3" x1="24.6" y1="50.4" x2="34.7" y2="60.5"/>
	<line class="st3" x1="24.6" y1="60.5" x2="34.7" y2="50.4"/>
</g>
<g>
	<rect x="24.6" y="40.4" class="st3" width="10" height="10"/>
	<line class="st3" x1="24.6" y1="40.4" x2="34.7" y2="50.5"/>
	<line class="st3" x1="24.6" y1="50.5" x2="34.7" y2="40.4"/>
</g>
<g>
	<rect x="24.6" y="30.4" class="st3" width="10" height="10"/>
	<line class="st3" x1="24.6" y1="30.4" x2="34.7" y2="40.5"/>
	<line class="st3" x1="24.6" y1="40.5" x2="34.7" y2="30.4"/>
</g>
<g>
	<rect x="24.6" y="20.4" class="st3" width="10" height="10"/>
	<line class="st3" x1="24.6" y1="20.4" x2="34.7" y2="30.5"/>
	<line class="st3" x1="24.6" y1="30.5" x2="34.7" y2="20.4"/>
</g>
<g>
	<polygon class="st2" points="32.9,7 26.4,7 24.6,20.5 34.7,20.5 	"/>
	<line class="st3" x1="26.4" y1="7" x2="34.7" y2="20.5"/>
	<line class="st3" x1="24.6" y1="20.5" x2="32.9" y2="7"/>
</g>
<path class="st7" d="M11.5,79.1L11.5,79.1c0.4,0,0.8,0.3,0.8,0.8v0.7c0,0.4-0.3,0.8-0.8,0.8h0c-0.4,0-0.8-0.3-0.8-0.8v-0.7
	C10.7,79.5,11.1,79.1,11.5,79.1z"/>
<rect x="29" y="4.2" class="st2" width="1.4" height="2.7"/>
<circle class="st3" cx="29.6" cy="3.8" r="1.6"/>
<circle class="st3" cx="29.6" cy="3.8" r="0.3"/>
<g>
	<path class="st2" d="M34.8,20.6h9.7c0.1,0,0.1-0.1,0-0.1l-4.9-4.9c0,0-0.1,0-0.1,0l-4.9,4.9C34.7,20.6,34.7,20.6,34.8,20.6z"/>
	<path class="st2" d="M44.6,20.6h9.7c0.1,0,0.1-0.1,0-0.1l-4.9-4.9c0,0-0.1,0-0.1,0l-4.9,4.9C44.6,20.6,44.6,20.6,44.6,20.6z"/>
	<path class="st2" d="M54.5,20.6h9.7c0.1,0,0.1-0.1,0-0.1l-4.9-4.9c0,0-0.1,0-0.1,0l-4.9,4.9C54.4,20.6,54.4,20.6,54.5,20.6z"/>
	<path class="st2" d="M64.4,20.6h9.7c0.1,0,0.1-0.1,0-0.1l-4.9-4.9c0,0-0.1,0-0.1,0l-4.9,4.9C64.3,20.6,64.3,20.6,64.4,20.6z"/>
	<path class="st2" d="M74.2,20.6H84c0.1,0,0.1-0.1,0-0.1l-4.9-4.9c0,0-0.1,0-0.1,0l-4.9,4.9C74.1,20.6,74.2,20.6,74.2,20.6z"/>
	<line class="st3" x1="39.1" y1="15.6" x2="79.1" y2="15.6"/>
</g>
<g>
	<path class="st2" d="M5.4,20.6h9.7c0.1,0,0.1-0.1,0-0.1l-4.9-4.9c0,0-0.1,0-0.1,0l-4.9,4.9C5.3,20.6,5.3,20.6,5.4,20.6z"/>
	<path class="st2" d="M15.2,20.6H25c0.1,0,0.1-0.1,0-0.1l-4.9-4.9c0,0-0.1,0-0.1,0l-4.9,4.9C15.1,20.6,15.2,20.6,15.2,20.6z"/>
	<line class="st3" x1="10.1" y1="15.6" x2="20.1" y2="15.6"/>
</g>
<path class="st8" d="M42.2,40.4H28V22.8h8.8c4.7,0,8.6,3.8,8.6,8.6v5.7C45.4,38.9,44,40.4,42.2,40.4z"/>
<path class="st9" d="M36.6,33.6v5h5.6c1.1,0,1.4-0.4,1.4-1.5v-3.5H36.6z"/>
<path class="st9" d="M43.6,31.6v-0.2c0-4-3-6.8-7-6.8v7H43.6z"/>
<line class="st3" x1="29.6" y1="2.2" x2="69.2" y2="15.7"/>
<line class="st3" x1="64.6" y1="20.1" x2="64.6" y2="28.1"/>
<line class="st3" x1="29.6" y1="2.2" x2="12.4" y2="15.7"/>
<path class="st8" d="M70.6,58.1v10h-7v-10h-6v10h-6v-10h-5v18h42v-18H70.6z M83.6,76.1h-8v-16h8V76.1z"/>
<line class="st3" x1="46.6" y1="58.1" x2="46.6" y2="45.1"/>
<line class="st3" x1="51.6" y1="58.1" x2="51.6" y2="45.1"/>
<line class="st3" x1="57.6" y1="58.1" x2="57.6" y2="45.1"/>
<line class="st3" x1="63.6" y1="58.1" x2="63.6" y2="45.1"/>
<line class="st3" x1="70.6" y1="58.1" x2="70.6" y2="45.1"/>
<line class="st3" x1="88.6" y1="58.1" x2="88.6" y2="47.1"/>
<line class="st3" x1="45.1" y1="53.6" x2="53.1" y2="53.6"/>
<path class="st3" d="M45.1,50.6"/>
<line class="st3" x1="45.1" y1="46.6" x2="72.1" y2="46.6"/>
<line class="st3" x1="70.1" y1="48.6" x2="88.1" y2="48.6"/>
<line class="st3" x1="45.1" y1="49.6" x2="53.1" y2="49.6"/>
<line class="st3" x1="56.1" y1="53.6" x2="65.1" y2="53.6"/>
<path class="st8" d="M34.1,75.3h-8.3c-1.6,0-3-1.4-3-3V72c0-1.7,1.4-3,3-3h8.3c1.6,0,3,1.3,3,3v0.3C37.1,73.9,35.7,75.3,34.1,75.3z"
	/>
<path class="st2" d="M37.1,80.1H22.5c-1.1,0-2-0.9-2-2v-3.7c0-1.1,0.9-2,2-2h14.6c1.1,0,2,0.9,2,2v3.7
	C39.1,79.2,38.2,80.1,37.1,80.1z"/>
<line class="st3" x1="56.1" y1="49.6" x2="65.1" y2="49.6"/>
<line class="st3" x1="57.1" y1="28.3" x2="74.1" y2="28.3"/>
<path class="st7" d="M97.4,82h-92c-0.4,0-0.8-0.4-0.8-0.8v-0.3c0-0.4,0.4-0.8,0.8-0.8h92c0.4,0,0.8,0.4,0.8,0.8v0.3
	C98.2,81.7,97.9,82,97.4,82z"/>
<path class="st10" d="M97.4,82.3h-2.4c-0.1-1-1.2-2-2.5-2c-0.5,0-0.9,0.3-1.3,0.5c-0.8-1.8-2.6-3.1-4.8-3.1c-2.1,0-3.9,1.3-4.7,3.1
	c-0.4-0.2-0.8-0.6-1.2-0.6c-1.3,0-2.4,1-2.5,2H5.4c-1.6,0-2.9,1.4-2.9,3c0,1.6,1.3,3,2.9,3h91.9c1.6,0,2.9-1.4,2.9-3
	C100.3,83.7,99,82.3,97.4,82.3z"/>
<polyline class="st11" points="10.1,84.6 11.5,84.4 13.1,84.7 14.1,84.6 "/>
<polyline class="st11" points="47.2,86 48.7,85.5 51.2,85.7 "/>
<polyline class="st11" points="83.1,83.6 84.5,83.4 86.1,83.7 87.1,83.6 "/>
<rect x="9.7" y="28.9" class="st5" width="10.3" height="1"/>
<rect x="29.5" y="24.6" class="st8" width="5.3" height="14"/>
<rect x="31" y="26.5" class="st12" width="2.4" height="2.6"/>
<line class="st13" x1="31.1" y1="34.6" x2="33.1" y2="34.6"/>
<line class="st13" x1="31.1" y1="35.2" x2="33.1" y2="35.2"/>
<line class="st13" x1="31.1" y1="35.8" x2="33.1" y2="35.8"/>
<line class="st13" x1="31.1" y1="36.3" x2="33.1" y2="36.3"/>
</svg>
