<?xml version="1.0" encoding="utf-8"?>
<!-- Generator: Adobe Illustrator 21.1.0, SVG Export Plug-In . SVG Version: 6.00 Build 0)  -->
<svg version="1.1" id="Слой_1" xmlns="http://www.w3.org/2000/svg" xmlns:xlink="http://www.w3.org/1999/xlink" x="0px" y="0px"
	 viewBox="0 0 94.7 48.8" style="enable-background:new 0 0 94.7 48.8;" xml:space="preserve">
<style type="text/css">
	.st0{fill:#223B50;}
	.st1{fill:#9BBFB1;stroke:#95A8AF;stroke-width:2;stroke-miterlimit:10;}
	.st2{fill:#EFF3F4;stroke:#2C5360;stroke-miterlimit:10;}
	.st3{opacity:0.15;}
	.st4{fill:none;stroke:#2C5360;stroke-miterlimit:10;}
	.st5{fill:#8A9899;stroke:#2C5360;stroke-linecap:round;stroke-linejoin:round;stroke-miterlimit:10;}
	.st6{fill:#B6C6C7;stroke:#2C5360;stroke-linecap:round;stroke-linejoin:round;stroke-miterlimit:10;}
	.st7{fill:none;stroke:#2C5360;stroke-linecap:round;stroke-linejoin:round;stroke-miterlimit:10;}
	.st8{fill:#9BBFB1;stroke:#2C5360;stroke-miterlimit:10;}
</style>
<g>
	<path class="st0" d="M73,43.5L73,43.5c-0.7,0-1.2,0.5-1.2,1.2v0c0,0.7,0.5,1.2,1.2,1.2l0,0c0.7,0,1.2-0.5,1.2-1.2v0
		C74.2,44.1,73.7,43.5,73,43.5z"/>
	<path class="st0" d="M81.8,42.2L81.8,42.2c-0.7,0-1.2,0.5-1.2,1.2v1.3c0,0.7,0.5,1.2,1.2,1.2l0,0c0.7,0,1.2-0.5,1.2-1.2v-1.3
		C83,42.8,82.5,42.2,81.8,42.2z"/>
	<path class="st0" d="M7.8,43.7L7.8,43.7c0.4,0,0.8,0.3,0.8,0.8v0.7c0,0.4-0.3,0.8-0.8,0.8h0c-0.4,0-0.8-0.3-0.8-0.8v-0.7
		C7.1,44,7.4,43.7,7.8,43.7z"/>
</g>
<path class="st1" d="M54.7,45.4c0.2-1,0.3-1.5,0.3-2.2c0-4.1-3.4-7.5-7.4-7.5c-3.1,0-5.8,1.9-6.9,4.6c-0.5-0.2-1.1-0.1-1.7-0.1
	c-2.9,0-5.3,2.2-5.5,5.2H54.7z"/>
<path class="st1" d="M83.8,45.4c0.2-1,0.3-1.5,0.3-2.2c0-4.1-3.4-7.5-7.4-7.5c-3.1,0-5.8,1.9-6.9,4.6c-0.5-0.2-1.1-0.1-1.7-0.1
	c-2.9,0-5.3,2.2-5.5,5.2H83.8z"/>
<path class="st1" d="M42.9,45.4c0.2-1,0.3-1.5,0.3-2.2c0-4.1-3.4-7.5-7.4-7.5c-3.1,0-5.8,1.9-6.9,4.6c-0.5-0.2-1.1-0.1-1.7-0.1
	c-2.9,0-5.3,2.2-5.5,5.2H42.9z"/>
<rect x="49.1" y="18.2" class="st2" width="3.6" height="27.5"/>
<polygon class="st3" points="51.2,14.6 51.2,45.6 52.5,45.6 52.5,18.5 "/>
<rect x="49.1" y="18.2" class="st4" width="3.6" height="27.5"/>
<g>
	<polyline points="11.7,25.6 11.7,45.6 13.7,45.6 13.7,28.1 11.7,25.6 	"/>
	<polygon class="st2" points="13.7,28.1 11.7,25.6 9.6,28.1 9.6,45.6 13.7,45.6 	"/>
	<polygon class="st3" points="11.7,25.6 11.7,45.6 13.7,45.6 13.7,28.1 	"/>
	<polygon class="st4" points="13.7,28.1 11.7,25.6 9.6,28.1 9.6,45.6 13.7,45.6 	"/>
</g>
<g>
	<polyline points="26,25.6 26,45.6 28.1,45.6 28.1,28.1 26,25.6 	"/>
	<polygon class="st2" points="28.1,28.1 26,25.6 23.9,28.1 23.9,45.6 28.1,45.6 	"/>
	<polygon class="st3" points="26,25.6 26,45.6 28.1,45.6 28.1,28.1 	"/>
	<polygon class="st4" points="28.1,28.1 26,25.6 23.9,28.1 23.9,45.6 28.1,45.6 	"/>
</g>
<g>
	<polyline points="40.3,25.6 40.3,45.6 42.4,45.6 42.4,28.1 40.3,25.6 	"/>
	<polygon class="st2" points="42.4,28.1 40.3,25.6 38.2,28.1 38.2,45.6 42.4,45.6 	"/>
	<polygon class="st3" points="40.3,25.6 40.3,45.6 42.4,45.6 42.4,28.1 	"/>
	<polygon class="st4" points="42.4,28.1 40.3,25.6 38.2,28.1 38.2,45.6 42.4,45.6 	"/>
</g>
<g>
	<polyline points="61.1,25.6 61.1,45.6 63.2,45.6 63.2,28.1 61.1,25.6 	"/>
	<polygon class="st2" points="63.2,28.1 61.1,25.6 59,28.1 59,45.6 63.2,45.6 	"/>
	<polygon class="st3" points="61.1,25.6 61.1,45.6 63.2,45.6 63.2,28.1 	"/>
	<polygon class="st4" points="63.2,28.1 61.1,25.6 59,28.1 59,45.6 63.2,45.6 	"/>
</g>
<g>
	<polyline points="75.4,25.6 75.4,45.6 77.5,45.6 77.5,28.1 75.4,25.6 	"/>
	<polygon class="st2" points="77.5,28.1 75.4,25.6 73.3,28.1 73.3,45.6 77.5,45.6 	"/>
	<polygon class="st3" points="75.4,25.6 75.4,45.6 77.5,45.6 77.5,28.1 	"/>
	<polygon class="st4" points="77.5,28.1 75.4,25.6 73.3,28.1 73.3,45.6 77.5,45.6 	"/>
</g>
<g>
	<polyline points="89.8,25.6 89.8,45.6 91.8,45.6 91.8,28.1 89.8,25.6 	"/>
	<polygon class="st2" points="91.8,28.1 89.8,25.6 87.7,28.1 87.7,45.6 91.8,45.6 	"/>
	<polygon class="st3" points="89.8,25.6 89.8,45.6 91.8,45.6 91.8,28.1 	"/>
	<polygon class="st4" points="91.8,28.1 89.8,25.6 87.7,28.1 87.7,45.6 91.8,45.6 	"/>
</g>
<path class="st5" d="M63.2,6.7v12.9H36.9v-6.8c0-3.4,3-6.1,6.6-6.1H63.2z"/>
<path class="st6" d="M47.1,12.9v6.8H36.9v-6.8c0-3.4,1.8-6.1,5.1-6.1C45.4,6.7,47.1,9.5,47.1,12.9z"/>
<line class="st7" x1="39.6" y1="16.6" x2="44.1" y2="16.6"/>
<circle class="st7" cx="52.7" cy="12.7" r="1.2"/>
<line class="st7" x1="51.5" y1="12.7" x2="51.5" y2="2.3"/>
<rect x="51.5" y="2.3" class="st7" width="3.3" height="1.6"/>
<line class="st4" x1="13.7" y1="32.3" x2="23.9" y2="32.3"/>
<line class="st4" x1="13.7" y1="36.1" x2="23.9" y2="36.1"/>
<line class="st4" x1="13.7" y1="40" x2="23.9" y2="40"/>
<line class="st4" x1="13.7" y1="43.8" x2="23.9" y2="43.8"/>
<line class="st4" x1="28.1" y1="32.3" x2="38.2" y2="32.3"/>
<line class="st4" x1="28.1" y1="36.1" x2="38.2" y2="36.1"/>
<line class="st4" x1="28.1" y1="40" x2="38.2" y2="40"/>
<line class="st4" x1="28.1" y1="43.8" x2="38.2" y2="43.8"/>
<line class="st4" x1="63.2" y1="32.3" x2="73.3" y2="32.3"/>
<line class="st4" x1="63.2" y1="36.1" x2="73.3" y2="36.1"/>
<line class="st4" x1="63.2" y1="40" x2="73.3" y2="40"/>
<line class="st4" x1="63.2" y1="43.8" x2="73.3" y2="43.8"/>
<path class="st8" d="M69.6,45.2c0.2,0,0.4-0.8,0.4-1.3c0-1.4-1.1-2.6-2.5-2.6c-0.5,0-0.9,0.1-1.3,0.4c-0.8-1.8-2.6-3.1-4.8-3.1
	c-2.1,0-3.9,1.3-4.7,3.1c-0.4-0.2-0.8-0.3-1.2-0.3c-1.4,0-2.5,1.2-2.5,2.6c0,0.5,0.1,1.3,0.4,1.3H69.6z"/>
<line class="st4" x1="77.5" y1="32.3" x2="87.7" y2="32.3"/>
<line class="st4" x1="77.5" y1="36.1" x2="87.7" y2="36.1"/>
<line class="st4" x1="77.5" y1="40" x2="87.7" y2="40"/>
<line class="st4" x1="77.5" y1="43.8" x2="87.7" y2="43.8"/>
<path class="st0" d="M92.8,46.6H2.3c-0.4,0-0.8-0.4-0.8-0.8v-0.3c0-0.4,0.4-0.8,0.8-0.8h90.4c0.4,0,0.8,0.4,0.8,0.8v0.3
	C93.6,46.2,93.2,46.6,92.8,46.6z"/>
</svg>
