<?xml version="1.0" encoding="utf-8"?>
<!-- Generator: Adobe Illustrator 21.1.0, SVG Export Plug-In . SVG Version: 6.00 Build 0)  -->
<svg version="1.1" id="Слой_1" xmlns="http://www.w3.org/2000/svg" xmlns:xlink="http://www.w3.org/1999/xlink" x="0px" y="0px"
	 viewBox="0 0 90.9 70.4" style="enable-background:new 0 0 90.9 70.4;" xml:space="preserve">
<style type="text/css">
	.st0{fill:#B6C6C7;stroke:#2C5360;stroke-linecap:round;stroke-linejoin:round;stroke-miterlimit:10;}
	.st1{opacity:0.15;}
	.st2{fill:none;stroke:#2C5360;stroke-linecap:round;stroke-linejoin:round;stroke-miterlimit:10;}
	.st3{fill:#9BBFB2;stroke:#96A9AF;stroke-width:2;stroke-miterlimit:10;}
	.st4{fill:#9BBFB1;stroke:#96A9AF;stroke-miterlimit:10;}
	.st5{fill:#9BBFB1;stroke:#95A8AF;stroke-width:2;stroke-miterlimit:10;}
	.st6{fill:#998F7C;stroke:#2C5360;stroke-linecap:round;stroke-linejoin:round;stroke-miterlimit:10;}
	.st7{opacity:0.15;fill:#FFFFFF;}
	.st8{fill:none;stroke:#2C5360;stroke-width:0.5;stroke-linecap:round;stroke-linejoin:round;stroke-miterlimit:10;}
	.st9{fill:#B6C6C7;stroke:#2C5360;stroke-width:0.5;stroke-linecap:round;stroke-linejoin:round;stroke-miterlimit:10;}
	.st10{fill:#9BBFB1;stroke:#2C5360;stroke-miterlimit:10;}
	.st11{fill:#DDDCB8;stroke:#2C5360;stroke-linecap:round;stroke-linejoin:round;stroke-miterlimit:10;}
	.st12{fill:#B6C6C7;stroke:#2C5360;stroke-width:0.75;stroke-linecap:round;stroke-linejoin:round;stroke-miterlimit:10;}
	.st13{fill:#B6C6C7;stroke:#2C5360;stroke-width:0.75;stroke-miterlimit:10;}
	.st14{fill:#223B50;}
</style>
<rect x="83" y="35.9" class="st0" width="2.5" height="23.1"/>
<rect x="82.9" y="36.3" class="st1" width="2.6" height="0.5"/>
<rect x="83" y="35.9" class="st2" width="2.5" height="23.1"/>
<rect x="83.6" y="18.2" class="st0" width="1.5" height="17.7"/>
<g>
	<path class="st3" d="M52.6,53.7c0-5.5-4.3-22-9.8-22s-10,16.6-10,22s4.4,9.9,9.9,9.9S52.6,59.2,52.6,53.7z"/>
	<line class="st3" x1="42.8" y1="51.4" x2="42.8" y2="69.4"/>
</g>
<path class="st4" d="M72.2,68.9c0.2,0,0.4-0.8,0.4-1.3c0-1.4-1.1-2.6-2.5-2.6c-0.5,0-0.9,0.1-1.3,0.4c-0.8-1.8-2.6-3.1-4.8-3.1
	c-2.1,0-3.9,1.3-4.7,3.1c-0.4-0.2-0.8-0.3-1.2-0.3c-1.4,0-2.5,1.2-2.5,2.6c0,0.5,0.1,1.3,0.4,1.3H72.2z"/>
<rect x="81.5" y="59" class="st0" width="5.5" height="10.5"/>
<g>
	<path class="st3" d="M29.6,53.7c0-5.5-4.3-22-9.8-22s-10,16.6-10,22s4.4,9.9,9.9,9.9S29.6,59.2,29.6,53.7z"/>
	<line class="st3" x1="19.8" y1="51.4" x2="19.8" y2="69.4"/>
</g>
<g>
	<line class="st5" x1="72.8" y1="51.4" x2="72.8" y2="69.4"/>
	<path class="st5" d="M64.5,49.6c0-4.5,3.6-30.8,8.1-30.8c4.5,0,8.1,26.3,8.1,30.8s-3.6,8.1-8.1,8.1C68.1,57.7,64.5,54.1,64.5,49.6z
		"/>
</g>
<rect x="62.5" y="42.9" class="st0" width="2.1" height="14.6"/>
<rect x="30.5" y="42.9" class="st0" width="2.1" height="14.6"/>
<rect x="30.5" y="61.2" class="st0" width="2.1" height="7.9"/>
<rect x="62.5" y="61.2" class="st0" width="2.1" height="7.9"/>
<rect x="23.4" y="49.8" class="st6" width="49.5" height="4"/>
<rect x="23.9" y="50.4" class="st7" width="48.5" height="0.4"/>
<rect x="21.5" y="57.5" class="st6" width="53.1" height="2"/>
<rect x="22" y="58.1" class="st7" width="52.1" height="0.2"/>
<rect x="29.5" y="59.6" class="st0" width="4.1" height="1.6"/>
<rect x="30.6" y="59.6" class="st8" width="1.8" height="1.6"/>
<rect x="61.5" y="59.6" class="st0" width="4.1" height="1.6"/>
<rect x="62.5" y="59.6" class="st8" width="1.9" height="1.6"/>
<g>
	<rect x="10.6" y="57.2" class="st0" width="7.3" height="11.5"/>
	<rect x="8.8" y="56.4" class="st0" width="10.8" height="10.7"/>
	<rect x="10.3" y="56.6" class="st9" width="7.9" height="10.1"/>
	<rect x="11.7" y="56.4" class="st0" width="4.9" height="10.7"/>
	<rect x="11.1" y="67.6" class="st1" width="3.1" height="0.3"/>
	<rect x="9.3" y="56.9" class="st7" width="9.8" height="0.4"/>
	<rect x="10.3" y="56.6" class="st8" width="7.9" height="10.1"/>
	<rect x="11.7" y="56.4" class="st2" width="4.9" height="10.7"/>
</g>
<path class="st10" d="M30.1,68.9c0.1-0.8,0.2-1.2,0.2-1.7c0-3.2-2.6-5.8-5.8-5.8c-2.4,0-4.5,1.5-5.4,3.6c-0.4-0.1-0.9-0.1-1.3-0.1
	c-2.2,0-4.1,1.7-4.3,4.1H30.1z"/>
<rect x="81.2" y="60.4" class="st1" width="6" height="0.5"/>
<rect x="81.5" y="59" class="st2" width="5.5" height="10.5"/>
<path class="st0" d="M85.8,35.9h-3c-0.5,0-0.8-0.4-0.8-0.8v0c0-0.5,0.4-0.8,0.8-0.8h3c0.5,0,0.8,0.4,0.8,0.8v0
	C86.6,35.5,86.2,35.9,85.8,35.9z"/>
<path class="st0" d="M85.8,17.9h-3c-0.5,0-0.8-0.4-0.8-0.8v0c0-0.5,0.4-0.8,0.8-0.8h3c0.5,0,0.8,0.4,0.8,0.8v0
	C86.6,17.6,86.2,17.9,85.8,17.9z"/>
<path class="st0" d="M85.8,57.8h-3c-0.5,0-0.8-0.4-0.8-0.8v0c0-0.5,0.4-0.8,0.8-0.8h3c0.5,0,0.8,0.4,0.8,0.8v0
	C86.6,57.4,86.2,57.8,85.8,57.8z"/>
<rect x="81.6" y="34.5" class="st7" width="5.3" height="0.5"/>
<rect x="81.6" y="56.4" class="st7" width="5.3" height="0.5"/>
<path class="st10" d="M89.2,68.9c0.2,0,0.4-0.8,0.4-1.3c0-1.4-1.1-2.6-2.5-2.6c-0.5,0-0.9,0.1-1.3,0.4c-0.8-1.8-2.6-3.1-4.8-3.1
	c-2.1,0-3.9,1.3-4.7,3.1c-0.4-0.2-0.8-0.3-1.2-0.3c-1.4,0-2.5,1.2-2.5,2.6c0,0.5,0.1,1.3,0.4,1.3H89.2z"/>
<path class="st2" d="M85.8,35.9h-3c-0.5,0-0.8-0.4-0.8-0.8v0c0-0.5,0.4-0.8,0.8-0.8h3c0.5,0,0.8,0.4,0.8,0.8v0
	C86.6,35.5,86.2,35.9,85.8,35.9z"/>
<rect x="81.6" y="16.6" class="st7" width="5.3" height="0.5"/>
<path class="st2" d="M85.8,17.9h-3c-0.5,0-0.8-0.4-0.8-0.8v0c0-0.5,0.4-0.8,0.8-0.8h3c0.5,0,0.8,0.4,0.8,0.8v0
	C86.6,17.6,86.2,17.9,85.8,17.9z"/>
<path class="st2" d="M85.8,57.8h-3c-0.5,0-0.8-0.4-0.8-0.8v0c0-0.5,0.4-0.8,0.8-0.8h3c0.5,0,0.8,0.4,0.8,0.8v0
	C86.6,57.4,86.2,57.8,85.8,57.8z"/>
<path class="st0" d="M86.7,60h-4.8c-0.6,0-1.1-0.5-1.1-1.1v0c0-0.6,0.5-1.1,1.1-1.1h4.8c0.6,0,1.1,0.5,1.1,1.1v0
	C87.8,59.5,87.3,60,86.7,60z"/>
<path class="st0" d="M82.6,17.9c0.2,1,0.9,1.4,1.7,1.4c0.8,0,1.5-0.4,1.7-1.4H82.6z"/>
<ellipse class="st11" cx="84.3" cy="13.5" rx="2.2" ry="2.5"/>
<circle class="st12" cx="84.3" cy="4.2" r="0.9"/>
<g>
	<polygon class="st11" points="86.5,13.8 82,13.8 80.1,6.8 88.5,6.8 	"/>
	<polygon class="st11" points="86.7,4.8 81.9,4.8 80.1,6.8 88.5,6.8 	"/>
</g>
<g>
	<polygon class="st11" points="85.4,13.8 83.1,13.8 82.2,6.8 86.3,6.8 	"/>
	<polygon class="st11" points="85.4,4.8 83.1,4.8 82.2,6.8 86.3,6.8 	"/>
</g>
<circle class="st13" cx="84.3" cy="2.4" r="1.2"/>
<line class="st2" x1="84.3" y1="13.9" x2="84.3" y2="15.7"/>
<rect x="31" y="43.4" class="st7" width="1.1" height="0.3"/>
<rect x="63" y="43.4" class="st7" width="1.1" height="0.3"/>
<path class="st6" d="M56.3,45.9c0,0-0.1,0.8-0.9,0.8c-0.8,0-0.9-0.8-0.9-0.8h-31v4h49.5v-4H56.3z"/>
<path class="st7" d="M72.4,46.8H56.7c0,0-0.2,0.7-1.3,0.7c-1,0-1.3-0.7-1.3-0.7H23.7l0.3-0.4h30.2h2.5h15.8V46.8z"/>
<path class="st2" d="M56.3,45.9c0,0-0.1,0.8-0.9,0.8c-0.8,0-0.9-0.8-0.9-0.8h-31v4h49.5v-4H56.3z"/>
<rect x="31" y="54.3" class="st1" width="1.1" height="0.3"/>
<rect x="30" y="60" class="st1" width="3.1" height="0.3"/>
<rect x="61.9" y="60" class="st1" width="3.1" height="0.4"/>
<rect x="63" y="54.3" class="st1" width="1.1" height="0.3"/>
<rect x="63" y="61.7" class="st1" width="1.1" height="0.3"/>
<rect x="31" y="61.7" class="st1" width="1.1" height="0.3"/>
<rect x="81.1" y="58.2" class="st7" width="6.5" height="0.5"/>
<path class="st2" d="M86.7,60h-4.8c-0.6,0-1.1-0.5-1.1-1.1v0c0-0.6,0.5-1.1,1.1-1.1h4.8c0.6,0,1.1,0.5,1.1,1.1v0
	C87.8,59.5,87.3,60,86.7,60z"/>
<path class="st14" d="M89.8,70.4H1.3c-0.4,0-0.8-0.4-0.8-0.8l0,0c0-0.4,0.4-0.8,0.8-0.8h88.5c0.4,0,0.8,0.4,0.8,0.8l0,0
	C90.6,70,90.2,70.4,89.8,70.4z"/>
<circle class="st13" cx="31.6" cy="48" r="0.7"/>
<circle class="st13" cx="31.6" cy="51.9" r="0.7"/>
<circle class="st13" cx="63.7" cy="48" r="0.7"/>
<circle class="st13" cx="63.7" cy="51.9" r="0.7"/>
</svg>
