<?xml version="1.0" encoding="utf-8"?>
<!--Designed by Vadim Laevsky-->
<!-- Generator: Adobe Illustrator 21.1.0, SVG Export Plug-In . SVG Version: 6.00 Build 0)  -->
<svg version="1.1" id="Слой_1" xmlns="http://www.w3.org/2000/svg" xmlns:xlink="http://www.w3.org/1999/xlink" x="0px" y="0px"
	 viewBox="0 0 112.1 76.8" style="enable-background:new 0 0 112.1 76.8;" xml:space="preserve">
<style type="text/css">
	.st0{fill:#EFF3F4;stroke:#2C5360;stroke-miterlimit:10;}
	.st1{opacity:0.1;}
	.st2{fill:#D4DEE0;stroke:#2C5360;stroke-miterlimit:10;}
	.st3{fill:#D09999;stroke:#2C5360;stroke-miterlimit:10;}
	.st4{fill:#E9EDF0;stroke:#2C5360;stroke-miterlimit:10;}
	.st5{fill:#E9EDF0;stroke:#2C5360;stroke-width:0.5;stroke-miterlimit:10;}
	.st6{fill:#2C5360;}
	.st7{fill:#223B50;}
	.st8{fill:#96A9AF;}
	.st9{fill:#D09999;}
	.st10{fill:none;stroke:#2C5360;stroke-miterlimit:10;}
	.st11{fill:#EFF3F4;}
	.st12{fill:#D5DDDF;stroke:#2C5360;stroke-miterlimit:10;}
	.st13{fill:#2C5360;stroke:#2C5360;stroke-miterlimit:10;}
	.st14{fill:#EFF3F4;stroke:#2C5360;stroke-width:0.75;stroke-miterlimit:10;}
	.st15{fill:#D4DCDE;stroke:#2C5360;stroke-miterlimit:10;}
	.st16{fill:#D4DEE0;stroke:#2C5360;stroke-width:0.5;stroke-miterlimit:10;}
	.st17{fill:#9BBFB1;stroke:#2C545E;stroke-miterlimit:10;}
</style>
<g>
	<rect x="19.7" y="42.8" class="st0" width="72.7" height="27.3"/>
	<rect x="20.2" y="48.3" class="st1" width="71.7" height="4.2"/>
	<rect x="14.2" y="46.3" class="st2" width="85.2" height="4.2"/>
	<polygon class="st3" points="100,46.3 13.6,46.3 19.5,28.4 94.1,28.4 	"/>
	<rect x="38.1" y="42.2" class="st0" width="37.2" height="33.9"/>
	<g>
		<rect x="50.9" y="58" class="st4" width="11.5" height="18.2"/>
		<rect x="53.6" y="60.7" class="st5" width="6.2" height="6.1"/>
		<rect x="53.6" y="68.7" class="st5" width="6.2" height="4.5"/>
		<circle class="st6" cx="52.9" cy="68" r="0.5"/>
	</g>
	<rect x="60.4" y="59.2" class="st1" width="1.5" height="16.1"/>
	
		<rect x="55.5" y="55.1" transform="matrix(-1.685809e-10 1 -1 -1.685809e-10 115.4673 3.6592)" class="st1" width="0.8" height="9"/>
	<path class="st4" d="M62.4,58.7H50.9v-5.3c0-0.3,0.2-0.5,0.5-0.5h10.4c0.3,0,0.5,0.2,0.5,0.5V58.7z"/>
	
		<rect x="55.3" y="49.4" transform="matrix(-1.099647e-10 1 -1 -1.099647e-10 109.8182 -1.9899)" class="st1" width="1.2" height="9"/>
	<path class="st7" d="M93.1,76.8H21.5c-0.4,0-0.8-0.4-0.8-0.8l0,0c0-0.4,0.4-0.8,0.8-0.8h71.6c0.4,0,0.8,0.4,0.8,0.8l0,0
		C93.9,76.5,93.5,76.8,93.1,76.8z"/>
	<rect x="60.4" y="53.3" class="st1" width="1.5" height="4.9"/>
	<path class="st8" d="M112.1,70.6H75.4c0,0,0,0,0,0v-0.9c0,0,0,0,0,0h36.7c0,0,0,0,0,0L112.1,70.6C112.1,70.6,112.1,70.6,112.1,70.6
		z"/>
	<path class="st8" d="M36.8,70.6H0c0,0,0,0,0,0l0-0.9c0,0,0,0,0,0h36.7c0,0,0,0,0,0L36.8,70.6C36.8,70.6,36.8,70.6,36.8,70.6z"/>
	<rect x="49.6" y="14.9" class="st0" width="13.9" height="13.2"/>
	<rect x="51" y="15.9" transform="matrix(-1.836970e-16 1 -1 -1.836970e-16 76.9265 -36.1162)" class="st0" width="11" height="9"/>
	
		<rect x="52.5" y="17.4" transform="matrix(-1.836970e-16 1 -1 -1.836970e-16 78.4265 -34.6162)" class="st0" width="8" height="9"/>
	<path class="st1" d="M50,15.4H63l-12.9,6.5C50.1,21.9,50.1,14.4,50,15.4z"/>
	<polygon class="st9" points="56.3,6.1 46.9,12.4 65.4,12.4 	"/>
	<polygon class="st1" points="56.2,6.1 46.9,12.4 56.2,12.4 	"/>
	<polygon class="st10" points="65.9,14.9 46.6,14.9 46.6,12.4 56.2,6.2 65.9,12.5 	"/>
	<polygon class="st11" points="35.8,43.4 78.1,43.4 56.6,22.1 	"/>
	<path class="st1" d="M75.3,45l-5,0.1v-2.8l0.6,0c0.7,0,1-0.8,0.5-1.3L56.5,26.3L40.8,41.8c-0.2,0.2-3.5,0.6-3.2,0.6l0,0l0.1,3.5
		l-9.5,0l3.4-3.4l22-20.8c1-1,2.1-1.5,3.1-0.5l16.8,18.3L75.3,45z"/>
	<path class="st2" d="M80.1,44L72.3,44v-2.8l0.6,0c0.7,0,1-0.8,0.5-1.3L56.8,23.4L39.3,40.7c-0.2,0.2-0.1,0.5,0.2,0.5l1.7,0V44h-7.8
		l0-2.8l21.5-21c1-1,2.6-1,3.6-0.1l21.6,21.1L80.1,44z"/>
	<rect x="46.7" y="12.8" class="st2" width="19.3" height="2"/>
	<path class="st1" d="M47.9,69.4h-7.6c0,0,0,0,0,0v-1.2c0,0,0,0,0,0h7.6c0,0,0,0,0,0L47.9,69.4C47.9,69.4,47.9,69.4,47.9,69.4z"/>
	<g>
		<path class="st12" d="M47.3,66.2h-6.3V53c0-0.1,0.1-0.2,0.2-0.2h6c0.1,0,0.2,0.1,0.2,0.2V66.2z"/>
		<rect x="41.3" y="62" class="st13" width="5.5" height="3.9"/>
		<path class="st14" d="M47.9,68.2h-7.6c0,0,0,0,0,0v-1.6c0,0,0,0,0,0h7.6c0,0,0,0,0,0L47.9,68.2C47.9,68.2,47.9,68.2,47.9,68.2z"/>
	</g>
	<g>
		<path class="st1" d="M33.4,68.4h-7.6c0,0,0,0,0,0v-1.2c0,0,0,0,0,0h7.6c0,0,0,0,0,0L33.4,68.4C33.5,68.3,33.4,68.4,33.4,68.4z"/>
		<path class="st12" d="M32.8,65.2h-6.3v-8.3c0-0.1,0.1-0.2,0.2-0.2h6c0.1,0,0.2,0.1,0.2,0.2V65.2z"/>
		<rect x="26.8" y="62.6" class="st13" width="5.5" height="2.3"/>
		<path class="st14" d="M33.5,67.2h-7.6c0,0,0,0,0,0v-1.6c0,0,0,0,0,0h7.6c0,0,0,0,0,0L33.5,67.2C33.5,67.2,33.5,67.2,33.5,67.2z"/>
	</g>
	<g>
		<path class="st1" d="M87.6,68.4H80c0,0,0,0,0,0v-1.2c0,0,0,0,0,0h7.6c0,0,0,0,0,0L87.6,68.4C87.7,68.3,87.7,68.4,87.6,68.4z"/>
		<path class="st12" d="M87.1,65.2h-6.3v-8.3c0-0.1,0.1-0.2,0.2-0.2h6c0.1,0,0.2,0.1,0.2,0.2V65.2z"/>
		<rect x="81" y="62.6" class="st13" width="5.5" height="2.3"/>
		<path class="st14" d="M87.7,67.2H80c0,0,0,0,0,0v-1.6c0,0,0,0,0,0h7.6c0,0,0,0,0,0L87.7,67.2C87.7,67.2,87.7,67.2,87.7,67.2z"/>
	</g>
	<polygon class="st1" points="20.2,66.9 37.6,52.4 37.5,69.6 20.2,69.6 	"/>
	<path class="st12" d="M71.7,66.2h-6.3V53c0-0.1,0.1-0.2,0.2-0.2h6c0.1,0,0.2,0.1,0.2,0.2V66.2z"/>
	<rect x="65.7" y="62" class="st13" width="5.5" height="3.9"/>
	<path class="st1" d="M72.3,69.4h-7.6c0,0,0,0,0,0v-1.2c0,0,0,0,0,0h7.6c0,0,0,0,0,0L72.3,69.4C72.4,69.4,72.4,69.4,72.3,69.4z"/>
	<path class="st14" d="M72.3,68.2h-7.6c0,0,0,0,0,0v-1.6c0,0,0,0,0,0h7.6c0,0,0,0,0,0L72.3,68.2C72.4,68.2,72.4,68.2,72.3,68.2z"/>
	<circle class="st15" cx="56.5" cy="40.2" r="4.7"/>
	<polygon class="st1" points="52.3,38.6 53.4,36.7 55.1,35.7 56.5,35.5 56.5,45.4 54.2,44.5 52.8,43.1 51.8,41.7 51.6,40.4 
		51.6,39.4 	"/>
	<circle class="st10" cx="56.5" cy="40.2" r="4.7"/>
	<line class="st2" x1="52.3" y1="38.8" x2="60.9" y2="38.8"/>
	<line class="st2" x1="56.3" y1="0" x2="56.3" y2="6.3"/>
	<line class="st2" x1="52" y1="41.6" x2="61" y2="41.6"/>
	<line class="st16" x1="53.6" y1="43.6" x2="59.6" y2="43.6"/>
	<line class="st16" x1="53.6" y1="37" x2="59.6" y2="37"/>
	<circle class="st17" cx="75" cy="71.8" r="3.1"/>
	<circle class="st17" cx="38" cy="71.8" r="3.1"/>
</g>
</svg>
