<?xml version="1.0" encoding="utf-8"?>
<!-- Generator: Adobe Illustrator 21.1.0, SVG Export Plug-In . SVG Version: 6.00 Build 0)  -->
<svg version="1.1" id="Слой_1" xmlns="http://www.w3.org/2000/svg" xmlns:xlink="http://www.w3.org/1999/xlink" x="0px" y="0px"
	 viewBox="0 0 93.1 53.4" style="enable-background:new 0 0 93.1 53.4;" xml:space="preserve">
<style type="text/css">
	.st0{fill:#D4E5DF;}
	.st1{fill:#9BBFB1;stroke:#95A8AF;stroke-width:2;stroke-miterlimit:10;}
	.st2{fill:#EFF3F4;stroke:#2C5360;stroke-miterlimit:10;}
	.st3{fill:#9BBFB1;stroke:#2C5360;stroke-miterlimit:10;}
	.st4{fill:#223B50;}
	.st5{fill:#B6C6C7;stroke:#96A9AF;stroke-miterlimit:10;}
	.st6{opacity:0.1;}
	.st7{fill:#2C5360;}
</style>
<path class="st0" d="M64.5,52.7c0-0.8,0-1.7-0.1-2.6C63.2,41.7,52.8,9.6,45.6,9.6c-7.1,0-17.5,32.1-18.7,40.5
	c-0.1,0.9-0.1,1.7-0.1,2.6H64.5z"/>
<path class="st0" d="M87.1,52.7c0-0.6,0-1.1-0.1-1.7c-0.8-5.7-7.8-27.2-12.6-27.2c-4.8,0-11.8,21.6-12.6,27.2
	c-0.1,0.6-0.1,1.2-0.1,1.7H87.1z"/>
<g>
	<path class="st1" d="M69.9,36c0-5.5-4.3-22-9.8-22s-10,16.6-10,22s4.4,9.9,9.9,9.9S69.9,41.4,69.9,36z"/>
	<line class="st1" x1="60.1" y1="33.7" x2="60.1" y2="51.7"/>
</g>
<line class="st2" x1="34.6" y1="19.7" x2="34.6" y2="12.7"/>
<path class="st0" d="M33.8,52.7c0-0.6,0-1.2-0.1-1.8c-0.8-5.8-8-27.9-12.9-27.9C15.9,23,8.7,45.1,7.9,50.9c-0.1,0.6-0.1,1.2-0.1,1.8
	H33.8z"/>
<g>
	<line class="st1" x1="15.1" y1="34.7" x2="15.1" y2="52.7"/>
	<path class="st1" d="M6.8,32.9c0-4.5,3.6-30.8,8.1-30.8S23,28.4,23,32.9S19.4,41,14.9,41S6.8,37.4,6.8,32.9z"/>
</g>
<path class="st3" d="M35.2,52.2c0.2-1,0.3-1.5,0.3-2.2c0-4.1-3.4-7.5-7.4-7.5c-3.1,0-5.8,1.9-6.9,4.6c-0.5-0.2-1.1-0.1-1.7-0.1
	c-2.9,0-5.3,2.2-5.5,5.2H35.2z"/>
<line class="st2" x1="49.6" y1="19.7" x2="49.6" y2="12.7"/>
<rect x="23.5" y="10.4" class="st2" width="3.6" height="42"/>
<rect x="38" y="-5.2" transform="matrix(4.501294e-11 -1 1 4.501294e-11 25.8861 53.746)" class="st2" width="3.6" height="38.2"/>
<rect x="30.6" y="19" class="st2" width="24.4" height="14.8"/>
<g>
	<path class="st4" d="M91.8,53.4H1.4c-0.4,0-0.8-0.4-0.8-0.8v-0.3c0-0.4,0.4-0.8,0.8-0.8h90.4c0.4,0,0.8,0.4,0.8,0.8v0.3
		C92.6,53,92.2,53.4,91.8,53.4z"/>
	<path class="st4" d="M72.6,50.3L72.6,50.3c-0.7,0-1.2,0.5-1.2,1.2v0c0,0.7,0.5,1.2,1.2,1.2l0,0c0.7,0,1.2-0.5,1.2-1.2v0
		C73.8,50.9,73.3,50.3,72.6,50.3z"/>
	<path class="st4" d="M81.5,49.1L81.5,49.1c-0.7,0-1.2,0.5-1.2,1.2v1.3c0,0.7,0.5,1.2,1.2,1.2l0,0c0.7,0,1.2-0.5,1.2-1.2v-1.3
		C82.6,49.6,82.1,49.1,81.5,49.1z"/>
	<path class="st4" d="M7.4,50.5L7.4,50.5c0.4,0,0.8,0.3,0.8,0.8V52c0,0.4-0.3,0.8-0.8,0.8h0c-0.4,0-0.8-0.3-0.8-0.8v-0.7
		C6.7,50.8,7,50.5,7.4,50.5z"/>
</g>
<polygon class="st5" points="47.6,25.4 43.2,22.2 38.6,25.4 38.6,26.2 39.6,26.2 39.6,30.2 41.9,30.2 41.9,27.2 44.3,27.2 
	44.3,30.2 46.6,30.2 46.6,26.2 47.6,26.2 "/>
<rect x="31.1" y="19.5" class="st6" width="23.4" height="1"/>
<polygon class="st6" points="25.5,16.2 25.5,16.2 24,16.2 24,17.3 25.5,17.3 25.5,51.5 26.5,51.5 26.5,16.2 "/>
<rect x="21.2" y="14.2" class="st6" width="37.2" height="1"/>
<circle class="st7" cx="25.2" cy="13.9" r="0.5"/>
</svg>
