<?xml version="1.0" encoding="utf-8"?>
<!-- Generator: Adobe Illustrator 21.1.0, SVG Export Plug-In . SVG Version: 6.00 Build 0)  -->
<svg version="1.1" id="Слой_1" xmlns="http://www.w3.org/2000/svg" xmlns:xlink="http://www.w3.org/1999/xlink" x="0px" y="0px"
	 viewBox="0 0 96.6 75.3" style="enable-background:new 0 0 96.6 75.3;" xml:space="preserve">
<style type="text/css">
	.st0{fill:#9BBFB1;stroke:#95A8AF;stroke-width:2;stroke-miterlimit:10;}
	.st1{fill:#EFF3F4;stroke:#96A9AF;stroke-miterlimit:10;}
	.st2{fill:#EFF3F4;stroke:#2C5360;stroke-miterlimit:10;}
	.st3{fill:#D09999;stroke:#2C5360;stroke-miterlimit:10;}
	.st4{opacity:0.1;}
	.st5{fill:#D5DDDF;stroke:#2C5360;stroke-miterlimit:10;}
	.st6{fill:#2C5360;stroke:#2C5360;stroke-miterlimit:10;}
	.st7{fill:#EFF3F4;stroke:#2C5360;stroke-width:0.75;stroke-miterlimit:10;}
	.st8{fill:#E9EDF0;stroke:#2C5360;stroke-miterlimit:10;}
	.st9{fill:#E9EDF0;stroke:#2C5360;stroke-width:0.5;stroke-miterlimit:10;}
	.st10{fill:#2C5360;}
	.st11{fill:#9BBFB1;stroke:#2C5360;stroke-miterlimit:10;}
	.st12{fill:#D4DEE0;stroke:#2C5360;stroke-miterlimit:10;}
	.st13{fill:none;stroke:#2C5360;stroke-linecap:round;stroke-linejoin:round;stroke-miterlimit:10;}
	.st14{fill:none;stroke:#2C5360;stroke-miterlimit:10;}
	.st15{fill:#223B50;}
</style>
<g>
	<path class="st0" d="M94.7,60.5c0-4.6-3.7-18.6-8.3-18.6S78,55.8,78,60.5s3.7,8.3,8.3,8.3S94.7,65.1,94.7,60.5z"/>
	<line class="st0" x1="86.7" y1="58.6" x2="86.7" y2="73.7"/>
</g>
<g>
	<line class="st1" x1="65.7" y1="0" x2="65.7" y2="9.4"/>
	<line class="st1" x1="60.4" y1="2.6" x2="71" y2="2.6"/>
	<line class="st1" x1="60.4" y1="0.9" x2="60.4" y2="4.7"/>
	<line class="st1" x1="71" y1="0.9" x2="71" y2="4.7"/>
	<line class="st1" x1="68.4" y1="1.2" x2="68.4" y2="4.3"/>
	<line class="st1" x1="63" y1="1.2" x2="63" y2="4.3"/>
</g>
<rect x="15.6" y="26.1" class="st2" width="65.3" height="48.1"/>
<polygon class="st3" points="69.6,8 26.9,8 15.6,23.1 80.9,23.1 "/>
<rect x="63.3" y="62.2" class="st4" width="10.2" height="1.3"/>
<g>
	<path class="st4" d="M33.5,46.1H22.9c0,0,0,0,0,0v-1.6c0,0,0,0,0,0h10.6c0,0,0,0,0,0L33.5,46.1C33.5,46.1,33.5,46.1,33.5,46.1z"/>
	<path class="st5" d="M32.5,41.8h-8.8V30.2c0-0.1,0.1-0.2,0.2-0.2h8.4c0.1,0,0.2,0.1,0.2,0.2V41.8z"/>
	<rect x="24.2" y="38.2" class="st6" width="7.7" height="3.2"/>
	<path class="st7" d="M33.4,44.6H22.8c0,0,0,0,0,0v-2.2c0,0,0,0,0,0h10.6c0,0,0,0,0,0L33.4,44.6C33.4,44.6,33.4,44.6,33.4,44.6z"/>
</g>
<g>
	<path class="st4" d="M53.4,45.2h-10c0,0,0,0,0,0v-1.5c0,0,0,0,0,0h10c0,0,0,0,0,0L53.4,45.2C53.4,45.2,53.4,45.2,53.4,45.2z"/>
	<path class="st5" d="M52.5,41.2h-8.3V30.3c0-0.1,0.1-0.2,0.2-0.2h7.9c0.1,0,0.2,0.1,0.2,0.2V41.2z"/>
	<rect x="44.7" y="34.6" class="st6" width="7.2" height="6.3"/>
	<path class="st7" d="M53.3,43.8h-10c0,0,0,0,0,0v-2.1c0,0,0,0,0,0h10c0,0,0,0,0,0L53.3,43.8C53.4,43.8,53.3,43.8,53.3,43.8z"/>
</g>
<g>
	<path class="st4" d="M73.1,45.2H63.1c0,0,0,0,0,0v-1.6c0,0,0,0,0,0h10.1c0,0,0,0,0,0L73.1,45.2C73.2,45.2,73.2,45.2,73.1,45.2z"/>
	<path class="st5" d="M72.2,41.2h-8.4v-11c0-0.1,0.1-0.2,0.2-0.2h8c0.1,0,0.2,0.1,0.2,0.2V41.2z"/>
	<rect x="64.3" y="39.1" class="st6" width="7.3" height="1.7"/>
	<path class="st7" d="M73.1,43.8H63c0,0,0,0,0,0v-2.1c0,0,0,0,0,0h10.1c0,0,0,0,0,0L73.1,43.8C73.1,43.8,73.1,43.8,73.1,43.8z"/>
</g>
<g>
	<path class="st4" d="M33.5,64.5H22.9c0,0,0,0,0,0v-1.6c0,0,0,0,0,0h10.6c0,0,0,0,0,0L33.5,64.5C33.5,64.5,33.5,64.5,33.5,64.5z"/>
	<path class="st5" d="M32.5,60.2h-8.8V48.6c0-0.1,0.1-0.2,0.2-0.2h8.4c0.1,0,0.2,0.1,0.2,0.2V60.2z"/>
	<rect x="24.2" y="51.5" class="st6" width="7.7" height="8.3"/>
	<path class="st7" d="M33.4,63H22.8c0,0,0,0,0,0v-2.2c0,0,0,0,0,0h10.6c0,0,0,0,0,0L33.4,63C33.4,63,33.4,63,33.4,63z"/>
</g>
<g>
	<path class="st5" d="M72.6,59.6h-8.4v-11c0-0.1,0.1-0.2,0.2-0.2h8c0.1,0,0.2,0.1,0.2,0.2V59.6z"/>
	<rect x="64.7" y="55.3" class="st6" width="7.3" height="4"/>
	<path class="st7" d="M73.5,62.2H63.4c0,0,0,0,0,0v-2.1c0,0,0,0,0,0h10.1c0,0,0,0,0,0L73.5,62.2C73.5,62.2,73.5,62.2,73.5,62.2z"/>
</g>
<g>
	<rect x="43" y="48.4" class="st8" width="10.7" height="19.3"/>
	<rect x="45.5" y="51.2" class="st9" width="5.7" height="6.4"/>
	<rect x="45.5" y="59.7" class="st9" width="5.7" height="4.8"/>
	<ellipse class="st10" cx="44.8" cy="58.9" rx="0.4" ry="0.5"/>
</g>
<path class="st11" d="M34.4,74.2c0.2,0,0.4-0.8,0.4-1.3c0-1.4-1.1-2.6-2.5-2.6c-0.5,0-0.9,0.1-1.3,0.4c-0.8-1.8-2.6-3.1-4.8-3.1
	c-2.1,0-3.9,1.3-4.7,3.1c-0.4-0.2-0.8-0.3-1.2-0.3c-1.4,0-2.5,1.2-2.5,2.6c0,0.5,0.1,1.3,0.4,1.3H34.4z"/>
<rect x="15.6" y="21.3" class="st12" width="65.4" height="2.6"/>
<rect x="13.4" y="23.3" class="st12" width="69.8" height="2.8"/>
<g>
	<polyline class="st13" points="55.4,67.7 55.4,62.1 83.8,67.7 83.8,73.2 	"/>
	<polyline class="st13" points="41.1,67.6 41.1,62.1 55.4,62.1 	"/>
	<polyline class="st14" points="83.8,70.6 55.4,65.1 41.3,65.1 	"/>
	<line class="st14" x1="65.8" y1="70" x2="65.8" y2="64.5"/>
	<line class="st14" x1="75.1" y1="71.6" x2="75.1" y2="66"/>
</g>
<polygon class="st12" points="55.4,67.7 41.1,67.7 41.1,69.9 39.1,69.9 39.1,72.2 37.1,72.2 37.1,74.5 55.4,74.5 55.4,74.3 
	87.7,74.3 "/>
<path class="st11" d="M61.7,74.9c0.2,0,0.3-0.7,0.3-1c0-1.1-0.9-2-2-2c-0.4,0-0.7,0.1-1,0.3c-0.6-1.5-2.1-2.5-3.8-2.5
	c-1.7,0-3.1,1-3.8,2.5c-0.3-0.2-0.6-0.3-1-0.3c-1.1,0-2,0.9-2,2.1c0,0.4,0.1,1,0.3,1H61.7z"/>
<rect x="15.6" y="26.1" class="st4" width="65.3" height="2"/>
<rect x="15.6" y="26.1" class="st14" width="65.3" height="48.1"/>
<g>
	<line class="st14" x1="11.7" y1="60.6" x2="11.7" y2="73.7"/>
	<path class="st11" d="M18.7,62.2c0-4-3.2-16.1-7.2-16.1S4.2,58.2,4.2,62.2s3.2,7.2,7.2,7.2S18.7,66.2,18.7,62.2z"/>
</g>
<path class="st15" d="M92.3,75.3H1.9c-0.4,0-0.8-0.4-0.8-0.8v-0.3c0-0.4,0.4-0.8,0.8-0.8h90.4c0.4,0,0.8,0.4,0.8,0.8v0.3
	C93.1,75,92.8,75.3,92.3,75.3z"/>
</svg>
